<svg width="33" height="21" viewBox="0 0 33 21" fill="none" xmlns="http://www.w3.org/2000/svg">
<path d="M12.0107 2.54785H21.6499V18.2702H12.0107V2.54785Z" fill="#FF5F00"/>
<path d="M12.9827 10.4089C12.983 8.89644 13.3255 7.40361 13.9845 6.04224C14.6436 4.68087 15.602 3.48623 16.7882 2.54777C15.3131 1.38796 13.5413 0.666599 11.6756 0.466155C9.80985 0.265712 7.92534 0.594274 6.23751 1.41428C4.54967 2.23429 3.12662 3.51265 2.13101 5.10324C1.1354 6.69382 0.607422 8.53245 0.607422 10.4089C0.607422 12.2854 1.1354 14.124 2.13101 15.7146C3.12662 17.3052 4.54967 18.5836 6.23751 19.4036C7.92534 20.2236 9.80985 20.5522 11.6756 20.3517C13.5413 20.1513 15.3131 19.4299 16.7882 18.2701C15.602 17.3316 14.6436 16.137 13.9845 14.7756C13.3255 13.4143 12.983 11.9214 12.9827 10.4089Z" fill="#EB001B"/>
<path d="M32.984 10.409C32.9853 12.2842 32.4589 14.1218 31.4649 15.7118C30.4709 17.3018 29.0495 18.58 27.3633 19.4001C25.677 20.2202 23.794 20.5491 21.9295 20.3493C20.0651 20.1495 18.2945 19.429 16.8203 18.2702C18.0067 17.332 18.9654 16.1374 19.6245 14.776C20.2835 13.4146 20.6259 11.9216 20.6259 10.409C20.6259 8.89648 20.2835 7.40353 19.6245 6.04211C18.9654 4.68068 18.0067 3.48609 16.8203 2.54788C18.2945 1.38907 20.0651 0.668556 21.9295 0.468748C23.794 0.26894 25.677 0.597905 27.3633 1.41802C29.0495 2.23813 30.4709 3.51628 31.4649 5.10628C32.4589 6.69627 32.9853 8.53392 32.984 10.409Z" fill="#F79E1B"/>
</svg>
