<svg width="156" height="51" viewBox="0 0 156 51" fill="none" xmlns="http://www.w3.org/2000/svg">
<path d="M19.4278 50.4089C17.7174 50.409 16.1752 49.3792 15.5199 47.7993L0.930026 12.5783C0.037414 10.4232 1.06066 7.95255 3.21561 7.05966L18.4971 0.730623C19.5318 0.301799 20.6946 0.301703 21.7295 0.730355C22.7643 1.15901 23.5865 1.98128 24.0149 3.01621L38.6048 38.2387C39.496 40.3932 38.473 42.8623 36.3193 43.7552L21.0378 50.0871C20.5275 50.2991 19.9804 50.4085 19.4278 50.4089ZM20.1136 2.68131C19.8575 2.68173 19.604 2.73272 19.3677 2.83136L4.08548 9.1604C3.60778 9.35827 3.22827 9.73783 3.03047 10.2156C2.83266 10.6933 2.83277 11.23 3.03076 11.7077L17.6207 46.9309C18.0337 47.9247 19.1731 48.3968 20.1679 47.9864L35.4494 41.653C35.9271 41.4551 36.3066 41.0755 36.5044 40.5978C36.7022 40.1201 36.7021 39.5833 36.5041 39.1057L21.9142 3.88608C21.6122 3.15785 20.9019 2.68262 20.1136 2.68131Z" fill="#5A78FF"/>
<path style="mix-blend-mode:multiply" opacity="0.7" d="M24.9769 5.33901L22.876 6.20923L28.6526 20.1553L30.7535 19.2851L24.9769 5.33901Z" fill="url(#paint0_linear_81_327)"/>
<path style="mix-blend-mode:multiply" opacity="0.7" d="M35.5349 36.7669L37.6357 35.8967L31.0968 20.1103L28.9959 20.9805L35.5349 36.7669Z" fill="url(#paint1_linear_81_327)"/>
<path d="M32.8794 26.3028C28.509 28.1151 24.8599 30.6131 22.4707 33.6243L16.3105 18.7466C19.1205 15.482 22.6971 12.9662 26.7193 11.4252C31.0897 9.61292 35.505 8.7358 39.2563 9.24685L45.4179 24.1238C41.1224 23.8003 36.8139 24.5491 32.8794 26.3028Z" fill="#5A78FF"/>
<g style="mix-blend-mode:multiply" opacity="0.4">
<path opacity="0.9" d="M32.8843 26.3024C28.5139 28.1146 24.8648 30.6126 22.4756 33.6238L16.3154 18.7461C19.1253 15.4815 22.7019 12.9657 26.7242 11.4247C31.0945 9.61243 35.5099 8.73531 39.2612 9.24636L45.4228 24.1233C41.1273 23.7998 36.8188 24.5486 32.8843 26.3024Z" fill="url(#paint2_linear_81_327)"/>
<path opacity="0.7" d="M32.8843 26.3024C28.5139 28.1146 24.8648 30.6126 22.4756 33.6238L16.3154 18.7461C19.1253 15.4815 22.7019 12.9657 26.7242 11.4247C31.0945 9.61243 35.5099 8.73531 39.2612 9.24636L45.4228 24.1233C41.1273 23.7998 36.8188 24.5486 32.8843 26.3024Z" fill="url(#paint3_linear_81_327)"/>
</g>
<path d="M34.8881 30.838C30.1575 30.838 25.827 31.7521 22.4707 33.6179V18.575C26.3159 16.6346 30.5827 15.6794 34.8881 15.795C39.6188 15.795 44.0341 16.6721 47.3048 18.5786V33.6216C43.4603 31.6796 39.1937 30.7231 34.8881 30.838ZM59.0546 30.8518L62.882 18.7533C62.9222 18.5857 63.0654 18.4629 63.2372 18.4489H65.1582C65.3304 18.473 65.4753 18.59 65.5351 18.7533L68.5144 26.3864C68.5724 26.5386 68.7246 26.5531 68.7754 26.3864L71.7329 18.7533C71.7928 18.59 71.9377 18.473 72.1099 18.4489H74.0308C74.2026 18.4629 74.3459 18.5857 74.386 18.7533L78.17 30.8518C78.214 30.9449 78.2053 31.0544 78.1472 31.1395C78.089 31.2245 77.99 31.2723 77.8873 31.2649H75.6039C75.442 31.2723 75.2982 31.1622 75.2632 31.004L72.8348 23.1462C72.7985 22.9939 72.6245 22.9939 72.5738 23.1462L69.6742 30.946C69.6249 31.1338 69.4552 31.2647 69.261 31.2649H67.92C67.7098 31.2649 67.601 31.149 67.5213 30.946L64.5637 23.1462C64.5058 22.9939 64.3535 22.9939 64.3173 23.1462L61.8309 31.004C61.7923 31.1662 61.642 31.2766 61.4757 31.2649H59.301C59.203 31.2635 59.1128 31.2113 59.0625 31.1271C59.0123 31.0429 59.0093 30.9387 59.0546 30.8518ZM78.8949 26.5024C78.8536 24.4413 80.0635 22.5602 81.9559 21.7427C83.8484 20.9252 86.0474 21.3339 87.5197 22.7768C88.9921 24.2197 89.4451 26.41 88.666 28.3186C87.8869 30.2272 86.0306 31.4748 83.9691 31.4752C82.6275 31.5209 81.3257 31.0151 80.367 30.0755C79.4083 29.1359 78.8762 27.8447 78.8949 26.5024ZM86.4337 26.5024C86.3429 25.1469 85.1836 24.1136 83.8266 24.1785C82.4696 24.2433 81.4143 25.3825 81.4531 26.7405C81.4919 28.0985 82.6106 29.1755 83.9691 29.1628C85.38 29.1039 86.4765 27.9133 86.4192 26.5024H86.4337ZM93.5087 30.4821C93.3202 30.3298 93.1535 30.3878 93.1535 30.6488V30.8953C93.1537 31.0859 93.0033 31.2427 92.8128 31.2504H91.0441C90.8511 31.243 90.6963 31.0883 90.6889 30.8953V18.7968C90.6963 18.6038 90.8511 18.449 91.0441 18.4416H92.907C93.0975 18.4494 93.2479 18.6062 93.2477 18.7968V22.2473C93.2477 22.4938 93.4145 22.5662 93.6827 22.3778C94.3961 21.8433 95.2631 21.5535 96.1545 21.5514C98.7352 21.5514 100.714 23.7261 100.714 26.5242C100.773 27.8027 100.314 29.051 99.4409 29.9868C98.5678 30.9227 97.3543 31.4671 96.0748 31.4969C95.1235 31.4867 94.2096 31.1253 93.5087 30.4821ZM98.148 26.5242C98.2193 25.5905 97.7617 24.6956 96.9629 24.207C96.1642 23.7184 95.159 23.7184 94.3603 24.207C93.5616 24.6956 93.1039 25.5905 93.1752 26.5242C93.1498 27.2006 93.3974 27.859 93.8623 28.3511C94.3271 28.8432 94.9703 29.1279 95.6471 29.141C96.3297 29.1259 96.9779 28.8386 97.4476 28.343C97.9173 27.8475 98.1694 27.1848 98.148 26.5024V26.5242ZM102.273 19.326C102.273 18.5253 102.922 17.8762 103.722 17.8762C104.523 17.8762 105.172 18.5253 105.172 19.326C105.172 20.1267 104.523 20.7758 103.722 20.7758C102.922 20.7758 102.273 20.1267 102.273 19.326ZM102.403 30.9242V22.1531C102.403 21.9624 102.553 21.8056 102.744 21.7979H104.607C104.705 21.7939 104.8 21.8292 104.873 21.8958C104.945 21.9624 104.987 22.055 104.991 22.1531V30.8953C104.984 31.0883 104.829 31.243 104.636 31.2504H102.744C102.553 31.2427 102.403 31.0859 102.403 30.8953V30.9242ZM107.064 28.0537V18.7968C107.064 18.6062 107.214 18.4494 107.405 18.4416H109.268C109.461 18.449 109.616 18.6038 109.623 18.7968V28.1117C109.623 28.7133 109.884 29.112 110.544 29.112C110.638 29.112 110.728 29.1494 110.795 29.2161C110.861 29.2827 110.899 29.373 110.899 29.4672V31.0112C110.891 31.2017 110.734 31.3521 110.544 31.3519C108.065 31.3519 107.064 30.5401 107.064 28.0537ZM111.595 26.5604C111.601 24.8097 112.541 23.1954 114.061 22.3257C115.58 21.456 117.448 21.4629 118.961 22.3438C120.474 23.2248 121.402 24.8459 121.395 26.5966C121.395 26.9373 121.301 27.22 120.96 27.22H114.48C114.313 27.22 114.255 27.3143 114.27 27.4665C114.431 28.602 115.446 29.4173 116.589 29.3295C117.277 29.3397 117.934 29.0419 118.38 28.5176C118.518 28.3233 118.743 28.2095 118.981 28.2132H120.714C121.018 28.2132 121.149 28.4234 121.033 28.7206C120.017 30.7925 117.707 31.8911 115.458 31.3722C113.21 30.8533 111.615 28.8536 111.609 26.5459L111.595 26.5604ZM118.474 25.6905C118.604 25.6905 118.662 25.6325 118.641 25.4803C118.443 24.4399 117.525 23.693 116.466 23.7116C115.43 23.7106 114.53 24.4219 114.291 25.4296C114.255 25.56 114.291 25.6905 114.444 25.6905H118.474ZM122.961 30.8953V18.7968C122.961 18.6062 123.111 18.4494 123.302 18.4416H129.239C131.95 18.4416 133.798 20.0219 133.798 22.6822C133.798 25.3426 131.703 26.9808 129.108 26.9808H125.962C125.866 26.9709 125.771 27.0057 125.705 27.0751C125.638 27.1445 125.607 27.2408 125.621 27.336V30.8953C125.614 31.0883 125.459 31.243 125.266 31.2504H123.309C123.116 31.2465 122.961 31.0886 122.961 30.8953ZM129.108 24.7917C130.232 24.7561 131.116 23.8203 131.087 22.6967C131.103 22.1645 130.899 21.6491 130.524 21.272C130.148 20.8948 129.633 20.6891 129.101 20.7033H125.933C125.708 20.7033 125.614 20.8192 125.614 21.044V24.4727C125.614 24.6974 125.708 24.8134 125.933 24.8134L129.108 24.7917ZM134.712 26.5024C134.663 25.2204 135.13 23.9723 136.009 23.0377C136.888 22.103 138.105 21.5598 139.387 21.5296C140.313 21.5347 141.205 21.8775 141.895 22.4938C142.062 22.646 142.25 22.6242 142.25 22.3995V22.1531C142.25 21.9649 142.403 21.8124 142.591 21.8124H144.36C144.553 21.8198 144.708 21.9745 144.715 22.1675V28.3871C144.715 28.8583 144.882 29.0685 145.208 29.112C145.377 29.1154 145.516 29.2476 145.527 29.4165V31.0547C145.527 31.2309 145.384 31.3737 145.208 31.3737C143.961 31.3737 143.229 31.0185 142.816 30.3008C142.7 30.1124 142.569 30.0761 142.381 30.2646C141.585 31.0843 140.486 31.5404 139.344 31.5259C138.058 31.4886 136.842 30.9346 135.97 29.9892C135.098 29.0437 134.645 27.7867 134.712 26.5024ZM142.25 26.5024C142.322 25.5714 141.865 24.679 141.069 24.1918C140.272 23.7045 139.27 23.7045 138.474 24.1918C137.677 24.679 137.221 25.5714 137.292 26.5024C137.221 27.4334 137.677 28.3258 138.474 28.8131C139.27 29.3003 140.272 29.3003 141.069 28.8131C141.865 28.3258 142.322 27.4334 142.25 26.5024ZM146.404 34.5705V33.0264C146.412 32.8359 146.569 32.6856 146.759 32.6857C147.972 32.7765 149.091 32.0289 149.47 30.8735C149.534 30.631 149.508 30.3737 149.398 30.1486L145.933 22.3053C145.873 22.1986 145.875 22.0681 145.938 21.9632C146.001 21.8583 146.115 21.7952 146.237 21.7979H148.1C148.289 21.7979 148.405 21.9501 148.477 22.1386L150.652 27.1548C150.804 27.5535 151.051 27.5318 151.217 27.1548L153.291 22.1241C153.363 21.9356 153.457 21.8196 153.646 21.8196H155.436C155.548 21.8137 155.655 21.8654 155.719 21.9566C155.784 22.0477 155.798 22.1656 155.755 22.269L152.189 30.7068C150.891 33.7803 149.514 34.9257 146.759 34.9257C146.566 34.9182 146.412 34.7635 146.404 34.5705Z" fill="#5A78FF"/>
<defs>
<linearGradient id="paint0_linear_81_327" x1="564.318" y1="1023.72" x2="469.999" y2="-76.6993" gradientUnits="userSpaceOnUse">
<stop stop-color="#504678"/>
<stop offset="0.302" stop-color="#504678" stop-opacity="0.616"/>
<stop offset="0.608" stop-color="#504678" stop-opacity="0.283"/>
<stop offset="0.852" stop-color="#504678" stop-opacity="0.076"/>
<stop offset="1" stop-color="#504678" stop-opacity="0"/>
</linearGradient>
<linearGradient id="paint1_linear_81_327" x1="-561.743" y1="-1121.49" x2="-502.59" y2="111.521" gradientUnits="userSpaceOnUse">
<stop stop-color="#504678"/>
<stop offset="0.302" stop-color="#504678" stop-opacity="0.616"/>
<stop offset="0.608" stop-color="#504678" stop-opacity="0.283"/>
<stop offset="0.852" stop-color="#504678" stop-opacity="0.076"/>
<stop offset="1" stop-color="#504678" stop-opacity="0"/>
</linearGradient>
<linearGradient id="paint2_linear_81_327" x1="415.144" y1="1635.88" x2="1569.45" y2="848.967" gradientUnits="userSpaceOnUse">
<stop stop-color="#504678"/>
<stop offset="0.179" stop-color="#504678" stop-opacity="0.872"/>
<stop offset="0.526" stop-color="#504678" stop-opacity="0.536"/>
<stop offset="1" stop-color="#504678" stop-opacity="0"/>
</linearGradient>
<linearGradient id="paint3_linear_81_327" x1="1405.43" y1="866.643" x2="1354.23" y2="457.123" gradientUnits="userSpaceOnUse">
<stop stop-color="#504678"/>
<stop offset="0.643" stop-color="#504678" stop-opacity="0.332"/>
<stop offset="1" stop-color="#504678" stop-opacity="0"/>
</linearGradient>
</defs>
</svg>
