<svg width="100" height="40" viewBox="0 0 100 40" fill="none" xmlns="http://www.w3.org/2000/svg">
<path d="M20.459 20C24.2269 20 27.2786 17.0166 27.2786 13.3333C27.2786 9.64996 24.2269 6.66663 20.459 6.66663C16.6912 6.66663 13.6394 9.64996 13.6394 13.3333C13.6394 17.0166 16.6912 20 20.459 20ZM20.459 23.3333C15.9069 23.3333 6.81982 25.5666 6.81982 30V33.3333H34.0982V30C34.0982 25.5666 25.0111 23.3333 20.459 23.3333Z" fill="#F6F1F1"/>
<path d="M49.7852 20C53.553 20 56.6048 17.0166 56.6048 13.3333C56.6048 9.64996 53.553 6.66663 49.7852 6.66663C46.0174 6.66663 42.9656 9.64996 42.9656 13.3333C42.9656 17.0166 46.0174 20 49.7852 20ZM49.7852 23.3333C45.2331 23.3333 36.146 25.5666 36.146 30V33.3333H63.4244V30C63.4244 25.5666 54.3373 23.3333 49.7852 23.3333Z" fill="#F6F1F1"/>
<path d="M79.3184 20C83.0862 20 86.138 17.0166 86.138 13.3333C86.138 9.64996 83.0862 6.66663 79.3184 6.66663C75.5506 6.66663 72.4988 9.64996 72.4988 13.3333C72.4988 17.0166 75.5506 20 79.3184 20ZM79.3184 23.3333C74.7663 23.3333 65.6792 25.5666 65.6792 30V33.3333H92.9576V30C92.9576 25.5666 83.8705 23.3333 79.3184 23.3333Z" fill="#F6F1F1"/>
</svg>
