<svg width="70" height="40" viewBox="0 0 70 40" fill="none" xmlns="http://www.w3.org/2000/svg">
<path d="M20.0361 20.0001C23.7261 20.0001 26.7148 17.0167 26.7148 13.3334C26.7148 9.65008 23.7261 6.66675 20.0361 6.66675C16.3461 6.66675 13.3574 9.65008 13.3574 13.3334C13.3574 17.0167 16.3461 20.0001 20.0361 20.0001ZM20.0361 23.3334C15.5781 23.3334 6.67871 25.5667 6.67871 30.0001V33.3334H33.3935V30.0001C33.3935 25.5667 24.4942 23.3334 20.0361 23.3334Z" fill="#F6F1F1"/>
<path d="M48.9853 20.0001C52.6753 20.0001 55.6641 17.0167 55.6641 13.3334C55.6641 9.65008 52.6753 6.66675 48.9853 6.66675C45.2954 6.66675 42.3066 9.65008 42.3066 13.3334C42.3066 17.0167 45.2954 20.0001 48.9853 20.0001ZM48.9853 23.3334C44.5273 23.3334 35.6279 25.5667 35.6279 30.0001V33.3334H62.3428V30.0001C62.3428 25.5667 53.4434 23.3334 48.9853 23.3334Z" fill="#F6F1F1"/>
</svg>
