<svg width="66" height="21" viewBox="0 0 66 21" fill="none" xmlns="http://www.w3.org/2000/svg">
<path d="M23.669 20.1805L26.9707 0.805036H32.2518L28.9476 20.1805H23.669ZM48.0279 1.22271C46.9818 0.830176 45.3422 0.408936 43.2948 0.408936C38.0762 0.408936 34.4005 3.03684 34.369 6.80316C34.3396 9.58724 36.9934 11.1405 38.9965 12.0672C41.0524 13.0171 41.7433 13.6227 41.7334 14.4706C41.7202 15.7695 40.0918 16.3625 38.5737 16.3625C36.4601 16.3625 35.3371 16.0689 33.6027 15.3457L32.9219 15.0378L32.1809 19.3751C33.4144 19.9162 35.6953 20.3846 38.0638 20.4089C43.6153 20.4089 47.2192 17.811 47.2602 13.789C47.2799 11.5848 45.873 9.90762 42.826 8.52464C40.9801 7.62831 39.8496 7.03021 39.8616 6.1226C39.8616 5.31723 40.8185 4.45605 42.8863 4.45605C44.613 4.42923 45.8643 4.80583 46.839 5.19837L47.3122 5.42195L48.0279 1.22271ZM61.6182 0.804738H57.5374C56.2733 0.804738 55.3271 1.14977 54.7721 2.41151L46.9287 20.1677H52.4744C52.4744 20.1677 53.381 17.7803 53.586 17.2561C54.1921 17.2561 59.5795 17.2644 60.3496 17.2644C60.5076 17.9428 60.9922 20.1677 60.9922 20.1677H65.8927L61.6182 0.804145V0.804738ZM55.1435 13.3162C55.5804 12.1999 57.2477 7.8999 57.2477 7.8999C57.2167 7.95147 57.6813 6.77811 57.9479 6.05064L58.3048 7.72115C58.3048 7.72115 59.316 12.3462 59.5274 13.3159H55.1435V13.3162ZM19.1857 0.804738L14.0153 14.018L13.4645 11.3329C12.5019 8.23751 9.50299 4.88392 6.15039 3.205L10.8782 20.1496L16.4658 20.1434L24.7802 0.80454L19.1857 0.804442" fill="#0E4595"/>
<path d="M9.19088 0.803955H0.674924L0.607422 1.20708C7.23275 2.81088 11.6165 6.68667 13.4366 11.3442L11.5849 2.44032C11.2653 1.21342 10.3381 0.847206 9.19108 0.804449" fill="#F2AE14"/>
</svg>
