<svg width="324" height="63" viewBox="0 0 324 63" fill="none" xmlns="http://www.w3.org/2000/svg">
<ellipse cx="75.83" cy="38.6324" rx="9.24724" ry="9.25082" fill="#C5EF1A"/>
<line x1="76.0022" y1="15.2012" x2="76.0022" y2="30.612" stroke="#C5EF1A" stroke-width="2"/>
<line y1="-1" x2="15.4107" y2="-1" transform="matrix(-0.161051 0.986946 -0.986926 -0.161173 79.4236 15.4026)" stroke="#C5EF1A" stroke-width="2"/>
<line y1="-1" x2="15.4099" y2="-1" transform="matrix(-0.395323 0.918542 -0.918431 -0.395581 84.3315 15.9299)" stroke="#C5EF1A" stroke-width="2"/>
<line y1="-1" x2="15.409" y2="-1" transform="matrix(-0.554433 0.832228 -0.83203 -0.554731 88.3213 18.5354)" stroke="#C5EF1A" stroke-width="2"/>
<line y1="-1" x2="15.4078" y2="-1" transform="matrix(-0.714188 0.699954 -0.699677 -0.714459 91.8013 21.6504)" stroke="#C5EF1A" stroke-width="2"/>
<line y1="-1" x2="15.4068" y2="-1" transform="matrix(-0.824885 0.565301 -0.565003 -0.825089 94.6755 25.1475)" stroke="#C5EF1A" stroke-width="2"/>
<line y1="-1" x2="15.4057" y2="-1" transform="matrix(-0.926353 0.376655 -0.376405 -0.926455 97.1897 28.9675)" stroke="#C5EF1A" stroke-width="2"/>
<line y1="-1" x2="15.4051" y2="-1" transform="matrix(-0.980616 0.195939 -0.195793 -0.980645 98.7786 33.261)" stroke="#C5EF1A" stroke-width="2"/>
<line y1="-1" x2="15.4049" y2="-1" transform="matrix(-0.999992 0.00409071 -0.00408754 -0.999992 98.9448 38.0129)" stroke="#C5EF1A" stroke-width="2"/>
<line y1="-1" x2="15.4051" y2="-1" transform="matrix(-0.978393 -0.206753 0.2066 -0.978426 98.7786 42.6826)" stroke="#C5EF1A" stroke-width="2"/>
<line y1="-1" x2="15.4059" y2="-1" transform="matrix(-0.911496 -0.41131 0.411045 -0.911615 98.2637 47.4434)" stroke="#C5EF1A" stroke-width="2"/>
<line y1="-1" x2="15.4068" y2="-1" transform="matrix(-0.818508 -0.574495 0.574197 -0.818717 95.5291 51.0828)" stroke="#C5EF1A" stroke-width="2"/>
<line y1="-1" x2="15.4077" y2="-1" transform="matrix(-0.724113 -0.689682 0.689401 -0.72438 92.4426 54.2209)" stroke="#C5EF1A" stroke-width="2"/>
<line y1="-1" x2="15.4089" y2="-1" transform="matrix(-0.563569 -0.826069 0.825866 -0.563867 89.2236 57.4473)" stroke="#C5EF1A" stroke-width="2"/>
<line y1="-1" x2="15.41" y2="-1" transform="matrix(-0.362125 -0.93213 0.932035 -0.362369 85.0771 59.71)" stroke="#C5EF1A" stroke-width="2"/>
<line y1="-1" x2="15.4106" y2="-1" transform="matrix(-0.176783 -0.98425 0.984226 -0.176916 80.8594 61.2126)" stroke="#C5EF1A" stroke-width="2"/>
<line x1="75.4734" y1="62.067" x2="75.4907" y2="46.6562" stroke="#C5EF1A" stroke-width="2"/>
<line y1="-1" x2="15.4106" y2="-1" transform="matrix(0.181408 -0.983408 0.983383 0.181544 71.875 61.7986)" stroke="#C5EF1A" stroke-width="2"/>
<line y1="-1" x2="15.4099" y2="-1" transform="matrix(0.396807 -0.917902 0.91779 0.397066 66.9963 60.802)" stroke="#C5EF1A" stroke-width="2"/>
<line y1="-1" x2="15.4088" y2="-1" transform="matrix(0.578225 -0.815877 0.815665 0.578524 62.5388 58.6165)" stroke="#C5EF1A" stroke-width="2"/>
<line y1="-1" x2="15.4078" y2="-1" transform="matrix(0.712435 -0.701738 0.701462 0.712707 59.2539 55.5308)" stroke="#C5EF1A" stroke-width="2"/>
<line y1="-1" x2="15.4068" y2="-1" transform="matrix(0.820257 -0.571994 0.571696 0.820466 56.2312 52.2896)" stroke="#C5EF1A" stroke-width="2"/>
<line y1="-1" x2="15.4057" y2="-1" transform="matrix(0.923402 -0.383834 0.38358 0.923508 53.6001 47.8833)" stroke="#C5EF1A" stroke-width="2"/>
<line y1="-1" x2="15.405" y2="-1" transform="matrix(0.98581 -0.167867 0.167741 0.985831 52.29 43.2632)" stroke="#C5EF1A" stroke-width="2"/>
<line y1="-1" x2="16.0295" y2="-1" transform="matrix(0.999738 -0.0228811 0.0228633 0.999739 51.8706 39.2217)" stroke="#C5EF1A" stroke-width="2"/>
<line y1="-1" x2="16.0297" y2="-1" transform="matrix(0.983884 0.178808 -0.178674 0.983908 52.0547 34.5334)" stroke="#C5EF1A" stroke-width="2"/>
<line y1="-1" x2="16.0306" y2="-1" transform="matrix(0.912696 0.40864 -0.408376 0.912814 53.6001 29.9856)" stroke="#C5EF1A" stroke-width="2"/>
<line y1="-1" x2="16.0314" y2="-1" transform="matrix(0.831878 0.554958 -0.554661 0.832077 55.7515 26.1636)" stroke="#C5EF1A" stroke-width="2"/>
<line y1="-1" x2="16.0325" y2="-1" transform="matrix(0.723069 0.690776 -0.690496 0.723336 58.4612 22.782)" stroke="#C5EF1A" stroke-width="2"/>
<line y1="-1" x2="16.0337" y2="-1" transform="matrix(0.570272 0.821456 -0.821249 0.57057 62.011 19.5781)" stroke="#C5EF1A" stroke-width="2"/>
<line y1="-1" x2="16.0348" y2="-1" transform="matrix(0.387111 0.922033 -0.921926 0.387366 65.9841 17.0842)" stroke="#C5EF1A" stroke-width="2"/>
<line y1="-1" x2="16.0356" y2="-1" transform="matrix(0.16047 0.987041 -0.987021 0.160591 70.7585 15.9299)" stroke="#C5EF1A" stroke-width="2"/>
<ellipse cx="129.956" cy="38.9069" rx="9.48521" ry="9.48889" fill="#C5EF1A"/>
<line x1="130.106" y1="14.8726" x2="130.106" y2="30.68" stroke="#C5EF1A" stroke-width="2"/>
<line y1="-1" x2="15.8073" y2="-1" transform="matrix(-0.161051 0.986946 -0.986926 -0.161173 133.642 15.0791)" stroke="#C5EF1A" stroke-width="2"/>
<line y1="-1" x2="15.8065" y2="-1" transform="matrix(-0.395323 0.918542 -0.918431 -0.395581 138.676 15.6201)" stroke="#C5EF1A" stroke-width="2"/>
<line y1="-1" x2="15.8055" y2="-1" transform="matrix(-0.554433 0.832228 -0.83203 -0.554731 142.769 18.2927)" stroke="#C5EF1A" stroke-width="2"/>
<line y1="-1" x2="15.8043" y2="-1" transform="matrix(-0.714188 0.699954 -0.699677 -0.714459 146.338 21.4878)" stroke="#C5EF1A" stroke-width="2"/>
<line y1="-1" x2="15.8033" y2="-1" transform="matrix(-0.824885 0.565301 -0.565003 -0.825089 149.286 25.0747)" stroke="#C5EF1A" stroke-width="2"/>
<line y1="-1" x2="15.8022" y2="-1" transform="matrix(-0.926353 0.376655 -0.376405 -0.926455 151.865 28.9932)" stroke="#C5EF1A" stroke-width="2"/>
<line y1="-1" x2="15.8015" y2="-1" transform="matrix(-0.980616 0.195939 -0.195793 -0.980645 153.495 33.397)" stroke="#C5EF1A" stroke-width="2"/>
<line y1="-1" x2="15.8013" y2="-1" transform="matrix(-0.999992 0.00409071 -0.00408754 -0.999992 153.665 38.2712)" stroke="#C5EF1A" stroke-width="2"/>
<line y1="-1" x2="15.8016" y2="-1" transform="matrix(-0.978393 -0.206753 0.2066 -0.978426 153.495 43.0613)" stroke="#C5EF1A" stroke-width="2"/>
<line y1="-1" x2="15.8023" y2="-1" transform="matrix(-0.911496 -0.41131 0.411045 -0.911615 152.967 47.9446)" stroke="#C5EF1A" stroke-width="2"/>
<line y1="-1" x2="15.8033" y2="-1" transform="matrix(-0.818508 -0.574495 0.574197 -0.818717 150.162 51.6777)" stroke="#C5EF1A" stroke-width="2"/>
<line y1="-1" x2="15.8042" y2="-1" transform="matrix(-0.724113 -0.689682 0.689401 -0.72438 146.996 54.8965)" stroke="#C5EF1A" stroke-width="2"/>
<line y1="-1" x2="15.8055" y2="-1" transform="matrix(-0.563569 -0.826069 0.825866 -0.563867 143.694 58.2058)" stroke="#C5EF1A" stroke-width="2"/>
<line y1="-1" x2="15.8066" y2="-1" transform="matrix(-0.362125 -0.93213 0.932035 -0.362369 139.441 60.5269)" stroke="#C5EF1A" stroke-width="2"/>
<line y1="-1" x2="15.8072" y2="-1" transform="matrix(-0.176783 -0.98425 0.984226 -0.176916 135.114 62.0681)" stroke="#C5EF1A" stroke-width="2"/>
<line x1="129.616" y1="62.9444" x2="129.634" y2="47.137" stroke="#C5EF1A" stroke-width="2"/>
<line y1="-1" x2="15.8072" y2="-1" transform="matrix(0.181408 -0.983408 0.983383 0.181544 125.899 62.6689)" stroke="#C5EF1A" stroke-width="2"/>
<line y1="-1" x2="15.8065" y2="-1" transform="matrix(0.396807 -0.917902 0.91779 0.397066 120.895 61.647)" stroke="#C5EF1A" stroke-width="2"/>
<line y1="-1" x2="15.8054" y2="-1" transform="matrix(0.578225 -0.815877 0.815665 0.578524 116.323 59.4053)" stroke="#C5EF1A" stroke-width="2"/>
<line y1="-1" x2="15.8043" y2="-1" transform="matrix(0.712435 -0.701738 0.701462 0.712707 112.953 56.24)" stroke="#C5EF1A" stroke-width="2"/>
<line y1="-1" x2="15.8033" y2="-1" transform="matrix(0.820257 -0.571994 0.571696 0.820466 109.853 52.9155)" stroke="#C5EF1A" stroke-width="2"/>
<line y1="-1" x2="15.8022" y2="-1" transform="matrix(0.923402 -0.383834 0.38358 0.923508 107.154 48.3958)" stroke="#C5EF1A" stroke-width="2"/>
<line y1="-1" x2="15.8015" y2="-1" transform="matrix(0.98581 -0.167867 0.167741 0.985831 105.81 43.6567)" stroke="#C5EF1A" stroke-width="2"/>
<line y1="-1" x2="16.442" y2="-1" transform="matrix(0.999738 -0.0228811 0.0228633 0.999739 105.38 39.5112)" stroke="#C5EF1A" stroke-width="2"/>
<line y1="-1" x2="16.4422" y2="-1" transform="matrix(0.983884 0.178808 -0.178674 0.983908 105.569 34.7024)" stroke="#C5EF1A" stroke-width="2"/>
<line y1="-1" x2="16.4431" y2="-1" transform="matrix(0.912696 0.40864 -0.408376 0.912814 107.154 30.0374)" stroke="#C5EF1A" stroke-width="2"/>
<line y1="-1" x2="16.444" y2="-1" transform="matrix(0.831878 0.554958 -0.554661 0.832077 109.361 26.1172)" stroke="#C5EF1A" stroke-width="2"/>
<line y1="-1" x2="16.4451" y2="-1" transform="matrix(0.723069 0.690776 -0.690496 0.723336 112.14 22.6484)" stroke="#C5EF1A" stroke-width="2"/>
<line y1="-1" x2="16.4463" y2="-1" transform="matrix(0.570272 0.821456 -0.821249 0.57057 115.781 19.3621)" stroke="#C5EF1A" stroke-width="2"/>
<line y1="-1" x2="16.4475" y2="-1" transform="matrix(0.387111 0.922033 -0.921926 0.387366 119.857 16.8042)" stroke="#C5EF1A" stroke-width="2"/>
<line y1="-1" x2="16.4482" y2="-1" transform="matrix(0.16047 0.987041 -0.987021 0.160591 124.754 15.6201)" stroke="#C5EF1A" stroke-width="2"/>
<path d="M0.24 57L0.66 55.92L4.62 55.26C5.82 55.06 6.74 54.86 7.38 54.66C8.02 54.42 8.52 54.08 8.88 53.64C9.24 53.2 9.58 52.56 9.9 51.72L21.9 21.9C22.42 20.62 22.52 19.78 22.2 19.38C21.92 18.98 21.02 18.64 19.5 18.36L16.14 17.7L16.56 16.62H50.7C50.34 17.18 50.02 17.74 49.74 18.3C49.46 18.86 49.2 19.42 48.96 19.98C48.4 21.46 47.98 22.84 47.7 24.12C47.46 25.36 47.22 26.4 46.98 27.24H45.78C45.9 26.36 45.92 25.4 45.84 24.36C45.8 23.32 45.58 22.32 45.18 21.36C44.82 20.4 44.22 19.62 43.38 19.02C42.58 18.38 41.5 18.06 40.14 18.06H28.92L21.66 36.06H29.7C30.94 36.06 32.08 36 33.12 35.88C34.16 35.72 35.14 35.32 36.06 34.68C37.02 34.04 37.94 32.94 38.82 31.38L40.44 28.56H41.52L34.8 45.12L33.72 45.18L34.26 42.54C34.62 40.94 34.58 39.82 34.14 39.18C33.74 38.5 33.06 38.1 32.1 37.98C31.18 37.82 30.14 37.74 28.98 37.74H20.94L15.3 51.72C14.78 52.96 14.66 53.8 14.94 54.24C15.22 54.64 16.14 54.98 17.7 55.26L21.36 55.92L20.94 57H0.24Z" fill="#C5EF1A"/>
<path d="M154.24 57L154.66 55.92L158.62 55.26C159.82 55.06 160.74 54.86 161.38 54.66C162.02 54.42 162.52 54.08 162.88 53.64C163.24 53.2 163.58 52.56 163.9 51.72L175.9 21.9C176.42 20.62 176.52 19.78 176.2 19.38C175.92 18.98 175.02 18.64 173.5 18.36L170.14 17.7L170.56 16.62H204.7C204.34 17.18 204.02 17.74 203.74 18.3C203.46 18.86 203.2 19.42 202.96 19.98C202.4 21.46 201.98 22.84 201.7 24.12C201.46 25.36 201.22 26.4 200.98 27.24H199.78C199.9 26.36 199.92 25.4 199.84 24.36C199.8 23.32 199.58 22.32 199.18 21.36C198.82 20.4 198.22 19.62 197.38 19.02C196.58 18.38 195.5 18.06 194.14 18.06H182.92L175.66 36.06H183.7C184.94 36.06 186.08 36 187.12 35.88C188.16 35.72 189.14 35.32 190.06 34.68C191.02 34.04 191.94 32.94 192.82 31.38L194.44 28.56H195.52L188.8 45.12L187.72 45.18L188.26 42.54C188.62 40.94 188.58 39.82 188.14 39.18C187.74 38.5 187.06 38.1 186.1 37.98C185.18 37.82 184.14 37.74 182.98 37.74H174.94L169.3 51.72C168.78 52.96 168.66 53.8 168.94 54.24C169.22 54.64 170.14 54.98 171.7 55.26L175.36 55.92L174.94 57H154.24ZM192.853 57L193.273 55.92L197.233 55.26C198.433 55.06 199.353 54.86 199.993 54.66C200.633 54.42 201.133 54.08 201.493 53.64C201.853 53.2 202.193 52.56 202.513 51.72L214.513 21.9C215.033 20.62 215.133 19.78 214.813 19.38C214.533 18.98 213.633 18.64 212.113 18.36L208.753 17.7L209.173 16.62H243.313C242.953 17.18 242.633 17.74 242.353 18.3C242.073 18.86 241.813 19.42 241.573 19.98C241.013 21.46 240.593 22.84 240.313 24.12C240.073 25.36 239.833 26.4 239.593 27.24H238.393C238.513 25.48 238.453 23.92 238.213 22.56C238.013 21.16 237.433 20.06 236.473 19.26C235.513 18.46 234.013 18.06 231.973 18.06H221.533L214.753 34.86H224.293C225.693 34.86 226.813 34.7 227.653 34.38C228.533 34.06 229.293 33.56 229.933 32.88C230.573 32.2 231.233 31.3 231.913 30.18L233.593 27.36H234.673L227.893 44.04H226.813L227.413 41.22C227.773 39.54 227.753 38.34 227.353 37.62C226.953 36.9 225.713 36.54 223.633 36.54H214.093L207.973 51.6C207.613 52.56 207.433 53.34 207.433 53.94C207.433 54.5 207.713 54.9 208.273 55.14C208.873 55.38 209.813 55.5 211.093 55.5H216.613C218.253 55.5 219.893 55.18 221.533 54.54C223.213 53.9 224.753 53.1 226.153 52.14C227.593 51.14 228.733 50.18 229.573 49.26L232.393 46.2H233.533C232.293 48.04 231.153 49.92 230.113 51.84C229.113 53.72 228.273 55.44 227.593 57H192.853ZM250.788 57.48C247.468 57.48 244.788 57.04 242.748 56.16C240.748 55.24 239.008 54.12 237.528 52.8C238.448 51.12 239.248 49.34 239.928 47.46C240.648 45.54 241.088 43.64 241.248 41.76L242.988 41.94C242.828 42.82 242.688 43.7 242.568 44.58C242.448 45.42 242.388 46.24 242.388 47.04C242.388 48.84 242.688 50.42 243.288 51.78C243.888 53.14 244.848 54.2 246.168 54.96C247.528 55.72 249.268 56.1 251.388 56.1C253.468 56.1 255.348 55.74 257.028 55.02C258.748 54.26 260.128 53.14 261.168 51.66C262.208 50.14 262.728 48.28 262.728 46.08C262.728 44.64 262.368 43.46 261.648 42.54C260.968 41.62 260.068 40.82 258.948 40.14C257.868 39.46 256.728 38.8 255.528 38.16C254.208 37.44 252.908 36.68 251.628 35.88C250.388 35.04 249.368 34 248.568 32.76C247.768 31.52 247.368 29.96 247.368 28.08C247.368 26.2 247.808 24.52 248.688 23.04C249.568 21.52 250.728 20.24 252.168 19.2C253.648 18.12 255.288 17.3 257.088 16.74C258.928 16.18 260.788 15.9 262.668 15.9C264.068 15.9 265.488 16.08 266.928 16.44C268.368 16.76 269.708 17.26 270.948 17.94C271.508 18.22 272.068 18.52 272.628 18.84C273.188 19.16 273.728 19.32 274.248 19.32C274.728 19.32 275.228 19.26 275.748 19.14L275.988 19.38C274.868 21.02 274.128 22.64 273.768 24.24C273.448 25.84 273.168 27.58 272.928 29.46L271.608 29.4C271.888 27.12 271.668 25.08 270.948 23.28C270.228 21.48 269.088 20.06 267.527 19.02C265.968 17.98 264.028 17.46 261.708 17.46C259.988 17.46 258.368 17.84 256.848 18.6C255.368 19.32 254.168 20.38 253.248 21.78C252.328 23.14 251.868 24.8 251.868 26.76C251.868 28 252.228 29.04 252.948 29.88C253.708 30.68 254.648 31.38 255.768 31.98C256.928 32.58 258.128 33.22 259.368 33.9C260.608 34.58 261.908 35.34 263.268 36.18C264.628 37.02 265.788 38.08 266.748 39.36C267.748 40.6 268.248 42.18 268.248 44.1C268.248 46.38 267.748 48.36 266.748 50.04C265.788 51.72 264.468 53.12 262.788 54.24C261.148 55.32 259.288 56.14 257.208 56.7C255.128 57.22 252.988 57.48 250.788 57.48ZM277.362 57L277.782 55.92L281.742 55.26C282.942 55.06 283.842 54.86 284.442 54.66C285.082 54.42 285.582 54.08 285.942 53.64C286.342 53.2 286.702 52.56 287.022 51.72L300.582 18.06H294.882C292.922 18.06 291.102 18.48 289.422 19.32C287.782 20.12 286.242 21.22 284.802 22.62C283.402 23.98 282.102 25.52 280.902 27.24H279.642C280.562 25.68 281.322 24.32 281.922 23.16C282.562 22 283.082 20.9 283.482 19.86C283.922 18.82 284.282 17.74 284.562 16.62H323.142C322.222 18.3 321.522 19.92 321.042 21.48C320.562 23 320.042 24.92 319.482 27.24H318.222C318.422 25.52 318.382 23.98 318.102 22.62C317.822 21.22 317.162 20.12 316.122 19.32C315.122 18.48 313.642 18.06 311.682 18.06H305.982L292.422 51.72C291.902 52.96 291.782 53.78 292.062 54.18C292.382 54.58 293.302 54.94 294.822 55.26L298.182 55.92L297.762 57H277.362Z" fill="#C5EF1A"/>
</svg>
