<svg width="75" height="77" viewBox="0 0 75 77" fill="none" xmlns="http://www.w3.org/2000/svg">
<ellipse cx="38.0441" cy="38.1234" rx="14.3781" ry="15.0114" fill="#C5EF1A"/>
<line x1="37.7563" y1="0.101074" x2="37.7563" y2="25.1084" stroke="#C5EF1A" stroke-width="2"/>
<line y1="-1" x2="24.9806" y2="-1" transform="matrix(-0.15448 0.987996 -0.985785 -0.168013 43.6309 0.427856)" stroke="#C5EF1A" stroke-width="2"/>
<line y1="-1" x2="24.8453" y2="-1" transform="matrix(-0.381238 0.924477 -0.912088 -0.409995 51.2622 1.28369)" stroke="#C5EF1A" stroke-width="2"/>
<line y1="-1" x2="24.6877" y2="-1" transform="matrix(-0.538062 0.842905 -0.820841 -0.571157 57.4656 5.51172)" stroke="#C5EF1A" stroke-width="2"/>
<line y1="-1" x2="24.4747" y2="-1" transform="matrix(-0.699077 0.715047 -0.684273 -0.729226 62.8767 10.5662)" stroke="#C5EF1A" stroke-width="2"/>
<line y1="-1" x2="24.2943" y2="-1" transform="matrix(-0.813374 0.581741 -0.548592 -0.83609 67.3457 16.2411)" stroke="#C5EF1A" stroke-width="2"/>
<line y1="-1" x2="24.1047" y2="-1" transform="matrix(-0.920547 0.390631 -0.362774 -0.931877 71.2544 22.4399)" stroke="#C5EF1A" stroke-width="2"/>
<line y1="-1" x2="23.9936" y2="-1" transform="matrix(-0.978941 0.204141 -0.1879 -0.982188 73.7256 29.407)" stroke="#C5EF1A" stroke-width="2"/>
<line y1="-1" x2="23.9523" y2="-1" transform="matrix(-0.999991 0.00426925 -0.0039166 -0.999992 73.9836 37.1179)" stroke="#C5EF1A" stroke-width="2"/>
<line y1="-1" x2="23.9983" y2="-1" transform="matrix(-0.976533 -0.215367 0.198307 -0.98014 73.7256 44.6957)" stroke="#C5EF1A" stroke-width="2"/>
<line y1="-1" x2="24.1339" y2="-1" transform="matrix(-0.904695 -0.426059 0.396608 -0.917988 72.9246 52.4211)" stroke="#C5EF1A" stroke-width="2"/>
<line y1="-1" x2="24.3054" y2="-1" transform="matrix(-0.80672 -0.590934 0.557765 -0.829999 68.6726 58.3269)" stroke="#C5EF1A" stroke-width="2"/>
<line y1="-1" x2="24.4596" y2="-1" transform="matrix(-0.709224 -0.704983 0.673813 -0.738902 63.8735 63.4191)" stroke="#C5EF1A" stroke-width="2"/>
<line y1="-1" x2="24.677" y2="-1" transform="matrix(-0.547162 -0.837026 0.814399 -0.580306 58.8687 68.6545)" stroke="#C5EF1A" stroke-width="2"/>
<line y1="-1" x2="24.8715" y2="-1" transform="matrix(-0.348859 -0.937175 0.926624 -0.375989 52.4219 72.326)" stroke="#C5EF1A" stroke-width="2"/>
<line y1="-1" x2="24.9751" y2="-1" transform="matrix(-0.169607 -0.985512 0.982855 -0.184381 45.8633 74.7646)" stroke="#C5EF1A" stroke-width="2"/>
<line y1="-1" x2="25.0074" y2="-1" transform="matrix(0.00107899 -0.999999 0.999999 0.00117615 39.0439 76.1527)" stroke="#C5EF1A" stroke-width="2"/>
<line y1="-1" x2="24.9733" y2="-1" transform="matrix(0.174056 -0.984736 0.981941 0.18919 31.894 75.7152)" stroke="#C5EF1A" stroke-width="2"/>
<line y1="-1" x2="24.8441" y2="-1" transform="matrix(0.382687 -0.923878 0.911404 0.411513 24.3086 74.0984)" stroke="#C5EF1A" stroke-width="2"/>
<line y1="-1" x2="24.6595" y2="-1" transform="matrix(0.561788 -0.827281 0.803756 0.594959 17.3774 70.5518)" stroke="#C5EF1A" stroke-width="2"/>
<line y1="-1" x2="24.4773" y2="-1" transform="matrix(0.697286 -0.716793 0.686092 0.727515 12.2703 65.5444)" stroke="#C5EF1A" stroke-width="2"/>
<line y1="-1" x2="24.3023" y2="-1" transform="matrix(0.808544 -0.588435 0.555269 0.831671 7.57007 60.285)" stroke="#C5EF1A" stroke-width="2"/>
<line y1="-1" x2="24.1105" y2="-1" transform="matrix(0.917394 -0.39798 0.369773 0.929122 3.47974 53.1349)" stroke="#C5EF1A" stroke-width="2"/>
<line y1="-1" x2="23.9826" y2="-1" transform="matrix(0.984573 -0.174974 0.160911 0.986969 1.44238 45.6376)" stroke="#C5EF1A" stroke-width="2"/>
<line y1="-1" x2="24.9241" y2="-1" transform="matrix(0.999715 -0.0238792 0.0219076 0.99976 0.790283 39.0797)" stroke="#C5EF1A" stroke-width="2"/>
<line y1="-1" x2="24.9593" y2="-1" transform="matrix(0.982484 0.186346 -0.171426 0.985197 1.07642 31.4719)" stroke="#C5EF1A" stroke-width="2"/>
<line y1="-1" x2="25.1101" y2="-1" transform="matrix(0.905974 0.423334 -0.393997 0.919112 3.47974 24.0919)" stroke="#C5EF1A" stroke-width="2"/>
<line y1="-1" x2="25.2666" y2="-1" transform="matrix(0.820682 0.571385 -0.538289 0.842761 6.82446 17.89)" stroke="#C5EF1A" stroke-width="2"/>
<line y1="-1" x2="25.4531" y2="-1" transform="matrix(0.708156 0.706056 -0.674926 0.737885 11.0376 12.4027)" stroke="#C5EF1A" stroke-width="2"/>
<line y1="-1" x2="25.6693" y2="-1" transform="matrix(0.553848 0.832618 -0.809579 0.587012 16.5571 7.20361)" stroke="#C5EF1A" stroke-width="2"/>
<line y1="-1" x2="25.8598" y2="-1" transform="matrix(0.373219 0.927743 -0.915818 0.401594 22.7349 3.15674)" stroke="#C5EF1A" stroke-width="2"/>
<line y1="-1" x2="25.9937" y2="-1" transform="matrix(0.153921 0.988083 -0.985888 0.167408 30.1582 1.28369)" stroke="#C5EF1A" stroke-width="2"/>
</svg>
